<?xml version="1.0" encoding="UTF-8"?>
<svg id="Layer_1" xmlns="http://www.w3.org/2000/svg" version="1.1" viewBox="0 0 1080 331.61">
  <!-- Generator: Adobe Illustrator 29.0.0, SVG Export Plug-In . SVG Version: 2.1.0 Build 186)  -->
  <defs>
    <style>
      .st0 {
        fill: #fff;
      }
    </style>
  </defs>
  <g>
    <path class="st0" d="M543.39,122.44l6.66-14.43h-90.88v-27.71h33.24l6.65-14.42v-.02s-54.33,0-54.33,0v98.8h14.43v-.07h48.42l6.66-14.43h-55.08v-27.71h84.22Z"/>
    <path class="st0" d="M515.26,65.88l-6.65,14.42h112.22v27.71h-54.57l-6.66,14.43h61.23v27.71h-90.39l-6.66,14.43h111.48v-98.71h-120Z"/>
  </g>
  <g>
    <g>
      <path class="st0" d="M684.5,218.35c-4.96-4.98-11.84-8.05-19.43-8.05h-62.13v54.96h62.13c7.58,0,14.47-3.07,19.43-8.05,4.98-4.99,8.05-11.86,8.05-19.43s-3.07-14.44-8.05-19.43ZM665.08,259.3h-56.16v-43.06h56.16c11.89.02,21.54,9.68,21.54,21.54s-9.64,21.52-21.54,21.52Z"/>
      <rect class="st0" x="702.25" y="210.25" width="5.98" height="55.06"/>
      <rect class="st0" x="815.79" y="210.25" width="5.96" height="55.06"/>
      <path class="st0" d="M922.13,215.82c-3.39-3.39-8.04-5.48-13.19-5.48h-58.82c-5.15,0-9.82,2.09-13.2,5.48-3.39,3.39-5.48,8.04-5.48,13.19v17.62c0,5.15,2.09,9.82,5.48,13.2,3.39,3.39,8.05,5.48,13.2,5.48h58.82c5.15,0,9.8-2.09,13.19-5.48,3.39-3.39,5.48-8.05,5.48-13.2v-17.62c0-5.15-2.09-9.8-5.48-13.19ZM921.66,246.62c0,7.02-5.71,12.7-12.72,12.72h-58.82c-7.02-.02-12.72-5.7-12.72-12.72v-17.62c0-7.01,5.7-12.72,12.72-12.72h58.82c7.01,0,12.72,5.71,12.72,12.72v17.62Z"/>
      <polygon class="st0" points="1030.26 210.19 1030.26 265.3 1020.13 265.3 943.27 214.51 943.27 265.24 937.3 265.24 937.3 210.22 947.58 210.22 1024.31 260.89 1024.31 210.19 1030.26 210.19"/>
      <polygon class="st0" points="806.1 210.3 806.1 216.24 765 216.24 765 265.3 759.02 265.3 759.02 216.24 717.92 216.24 717.92 210.3 806.1 210.3"/>
      <polygon class="st0" points="511.2 217.27 511.2 234.28 583.41 234.28 583.41 241.26 511.2 241.26 511.2 258.28 593.26 258.28 593.26 265.26 504.22 265.26 504.22 210.3 593.26 210.3 593.26 217.27 511.2 217.27"/>
    </g>
    <g>
      <polygon class="st0" points="222.89 259.27 222.89 265.23 154.41 265.23 154.41 265.27 148.47 265.27 148.47 210.22 154.41 210.22 154.41 259.27 222.89 259.27"/>
      <rect class="st0" x="229.4" y="210.22" width="5.96" height="55.06"/>
      <polygon class="st0" points="332.72 210.26 332.72 216.21 291.62 216.21 291.62 265.27 285.64 265.27 285.64 216.21 244.54 216.21 244.54 210.26 332.72 210.26"/>
      <polygon class="st0" points="348.38 216.21 348.38 234.76 422.13 234.76 422.13 240.73 348.38 240.73 348.38 259.27 432.19 259.27 432.19 265.23 348.38 265.23 348.38 265.27 342.41 265.27 342.41 210.26 432.19 210.26 432.19 216.21 348.38 216.21"/>
      <polygon class="st0" points="56.72 217.24 56.72 234.25 128.93 234.25 128.93 241.23 56.72 241.23 56.72 258.25 138.78 258.25 138.78 265.23 49.74 265.23 49.74 210.26 138.78 210.26 138.78 217.24 56.72 217.24"/>
    </g>
  </g>
</svg>