<?xml version="1.0" encoding="utf-8"?>
<!-- Generator: Adobe Illustrator 26.2.1, SVG Export Plug-In . SVG Version: 6.00 Build 0)  -->
<svg version="1.1" id="Layer_1" xmlns="http://www.w3.org/2000/svg" xmlns:xlink="http://www.w3.org/1999/xlink" x="0px" y="0px"
	 viewBox="0 0 500 500" style="enable-background:new 0 0 500 500;" xml:space="preserve">
<style type="text/css">
	.st0{fill:#6E3419;}
</style>
<g>
	<g>
		<g>
			<path class="st0" d="M204.85,123.42c-3.14,0.66-6.28,0.99-9.41,0.99c-3.14,0-6.28-0.17-9.41-0.66
				c-25.6,20.81-28.08,38.15-42.45,64.91c-12.72,23.45-32.7,42.78-60.94,42.78c-20.48,0-37.16-6.94-44.26-27.42
				c-9.41-5.61-13.71-10.9-13.71-22.13c0-8.75,3.14-16.35,8.26-23.29c2.64-3.47,14.37-13.71,18.66-13.71c0.5,0,1.16,0.17,1.16,0.83
				c0,0.66-5.78,3.47-5.95,3.63c-11.4,6.94-19.98,18.99-19.98,32.54c0,9.41,3.14,14.37,11.07,19.32c0-15.19,3.47-26.76,13.54-38.32
				c8.92-10.24,21.97-18.83,36-18.83c10.07,0,19.32,5.28,19.32,16.35c0,11.89-8.92,24.77-17.67,32.21
				c-9.58,8.26-23.78,14.04-36.5,14.04c-3.96,0-7.76-0.83-11.56-1.65c3.3,7.27,5.62,11.56,12.39,16.19
				c6.28,4.13,13.71,6.28,21.31,6.28c12.22,0,24.94-5.78,34.35-13.38c13.54-10.9,22.13-27.09,31.38-41.45
				c7.27-11.4,14.7-22.96,23.95-32.87c5.62-5.95,11.89-11.23,18.17-16.35c-16.52-2.64-43.44-12.22-52.19-12.22
				c-14.37,0-25.6,8.59-25.6,23.62c0,4.13,1.82,7.93,1.82,10.07c0,0.5-0.33,0.66-0.83,0.66c-1.98,0-3.14-10.24-3.14-11.73
				c0-8.26,4.13-17.01,10.41-22.46c6.28-5.45,17.34-8.26,25.43-8.26c8.75,0,18.66,2.48,26.92,5.12c8.75,2.81,17.34,6.44,26.26,8.59
				c6.94-4.46,17.01-9.91,25.43-9.91c2.31,0,5.62,0.66,5.62,3.63C222.68,117.64,210.3,122.1,204.85,123.42z M87.75,146.21
				c-24.77,0-47.9,27.09-47.9,51.03c0,1.65,0.17,3.3,0.17,4.95c4.29,0.99,8.75,1.98,13.21,1.98c21.97,0,51.03-20.48,51.03-44.1
				C104.27,150.67,96.34,146.21,87.75,146.21z M217.73,108.72c-7.43,0-17.01,5.12-22.96,9.08c3.14,0.99,6.28,1.65,9.58,1.65
				c4.29,0,16.02-3.14,16.02-8.75C220.37,109.22,219.05,108.72,217.73,108.72z"/>
			<path class="st0" d="M216.57,209.8c-6.61,6.44-23.12,21.47-32.87,21.47c-3.3,0-6.28-1.65-6.28-5.29c0-1.98,0.83-4.46,1.49-6.44
				c-4.29,3.96-11.89,11.73-18.17,11.73c-5.29,0-9.41-3.63-9.41-9.08c0-15.36,27.25-33.86,41.46-33.86c2.31,0,6.28,0.83,6.28,3.8
				c0,0.5-0.17,1.16-0.33,1.65l3.63-4.46l9.41-0.5l-21.47,27.09c-1.32,1.65-6.44,8.42-6.44,10.41c0,1.49,1.49,2.15,2.64,2.15
				c8.42,0,35.84-27.25,36.67-27.25c0.5,0,0.66,0.33,0.66,0.83C223.84,203.36,217.73,208.81,216.57,209.8z M192.46,190.64
				c-6.44,0-14.53,8.26-18.66,12.39c-3.96,3.96-16.19,16.68-16.19,22.79c0,1.65,1.49,3.47,3.14,3.47c7.1,0,35.01-27.91,35.01-35.34
				C195.76,192.12,194.28,190.64,192.46,190.64z"/>
			<path class="st0" d="M258.85,207.82c-6.11,5.95-22.79,22.79-31.22,22.79c-4.62,0-7.27-2.81-7.27-7.43
				c0-10.57,18.66-25.43,26.1-31.55c-1.65,0.5-3.3,0.66-4.95,0.66c-1.82,0-4.29-0.99-5.78-2.15c-1.49,1.65-12.06,13.38-13.21,13.38
				c-0.5,0-0.83-0.33-0.83-0.83c0-0.66,0.99-1.49,1.32-1.82c4.29-4.13,8.26-8.59,12.06-13.21c0-3.3,1.49-8.92,5.62-8.92
				c1.98,0,2.81,1.98,2.81,3.63c0,2.31-1.98,4.29-3.47,5.78c1.32,0.66,2.81,1.16,4.29,1.16c3.14,0,6.61-0.99,9.74-1.82
				c0.33,0.33,1.16,0.99,1.16,1.49c0,0.83-2.81,3.14-3.3,3.63c-5.45,5.29-24.44,23.29-24.44,32.54c0,1.32,0.99,2.31,2.31,2.31
				c8.59,0,31.71-26.26,33.2-26.26c0.5,0,0.99,0.33,0.99,0.83C263.97,202.86,259.51,207.15,258.85,207.82z"/>
			<path class="st0" d="M293.04,174.45h10.07l-1.65,2.81h-10.41l-29.4,35.67c-2.48,3.14-7.27,8.09-7.27,12.39
				c0,1.98,1.65,3.3,3.47,3.3c7.27,0,27.09-19.16,31.88-23.78c0.66-0.66,3.14-3.8,4.13-3.8c0.33,0,0.83,0.16,0.83,0.66
				c0,0.66-2.48,3.3-3.14,3.96c-6.94,7.1-24.77,25.6-35.51,25.6c-4.46,0-7.6-2.48-7.6-7.1c0-7.93,8.42-17.18,13.21-22.79
				l20.81-24.11h-9.08l1.82-2.81h9.58l16.68-19.82l9.25-1.32L293.04,174.45z"/>
			<path class="st0" d="M345.06,209.8c-6.61,6.44-23.12,21.47-32.87,21.47c-3.3,0-6.28-1.65-6.28-5.29c0-1.98,0.83-4.46,1.49-6.44
				c-4.29,3.96-11.89,11.73-18.17,11.73c-5.29,0-9.41-3.63-9.41-9.08c0-15.36,27.25-33.86,41.46-33.86c2.31,0,6.28,0.83,6.28,3.8
				c0,0.5-0.17,1.16-0.33,1.65l3.63-4.46l9.41-0.5l-21.47,27.09c-1.32,1.65-6.44,8.42-6.44,10.41c0,1.49,1.49,2.15,2.64,2.15
				c8.42,0,35.84-27.25,36.67-27.25c0.5,0,0.66,0.33,0.66,0.83C352.33,203.36,346.22,208.81,345.06,209.8z M320.95,190.64
				c-6.44,0-14.53,8.26-18.66,12.39c-3.96,3.96-16.19,16.68-16.19,22.79c0,1.65,1.49,3.47,3.14,3.47c7.1,0,35.01-27.91,35.01-35.34
				C324.25,192.12,322.77,190.64,320.95,190.64z"/>
		</g>
	</g>
	<g>
		<g>
			<path class="st0" d="M328.24,289.25c-6.94,8.92-13.38,18-19.82,27.25c-5.62,7.76-11.23,15.52-16.52,23.45
				c-4.29,6.44-27.58,41.95-27.58,49.05c0,1.16,0.66,2.81,2.15,2.81c5.45,0,18.83-13.71,22.63-17.51c1.16-1.16,7.27-7.6,8.42-8.26
				c0.17,0,0.33,0.33,0.33,0.5c0,1.49-4.79,6.77-5.78,7.76c-5.12,5.62-21.64,21.97-29.4,21.97c-4.13,0-6.44-3.63-6.44-7.43
				c0-10.57,9.08-26.76,14.37-35.84h-17.34c-11.56,12.06-23.45,23.62-38.32,31.71c-13.05,7.1-26.43,11.73-41.29,11.73
				c-16.68,0-27.09-5.29-35.67-19.82c-11.4-4.13-21.14-13.38-21.14-26.26c0-14.04,7.76-25.76,18.83-33.86
				c12.72-9.25,26.1-11.56,41.46-13.05c11.73-5.95,22.96-9.74,36.17-9.74c12.72,0,27.75,4.95,27.75,20.15
				c0,18.5-14.2,33.86-27.91,44.43c-16.68,12.72-35.18,20.81-56.32,20.81c-5.29,0-10.24-0.66-15.36-1.65
				c6.77,9.58,14.53,13.38,26.26,13.38c28.08,0,52.69-19.16,71.84-37.82h-12.22c-0.66,0-2.31-0.16-2.31-1.16
				c0-1.32,1.32-1.49,2.31-1.49h14.7c5.45-4.79,10.74-9.74,15.86-14.7c12.72-11.89,25.27-23.95,38.15-35.51
				c6.11-5.45,23.12-21.31,31.88-21.31c2.15,0,4.13,0.49,4.13,3.14C332.04,284.3,329.56,287.6,328.24,289.25z M137.15,318.49
				c-9.58,6.77-18.17,19.82-18.17,31.88c0,11.4,8.26,18.83,18,23.12c-0.83-3.14-1.16-6.11-1.16-9.25
				c0-22.46,17.34-45.09,35.01-57.48C158.95,307.75,146.9,311.55,137.15,318.49z M214.45,295.86c-11.4,0-21.47,2.97-31.71,7.6
				c3.63,0.33,23.78,2.97,23.78,7.1c0,0.49-0.33,0.83-0.83,0.83c-1.65,0-5.45-1.82-7.1-2.31c-6.77-2.15-14.53-2.81-21.47-2.97
				c-19.32,11.4-38.98,33.86-38.98,57.48c0,4.13,0.66,6.94,1.82,10.74c6.28,1.49,12.39,2.31,18.83,2.31
				c12.55,0,26.92-4.62,37.99-10.57c16.02-8.59,31.22-21.14,38.48-38.15c1.82-4.29,3.3-9.08,3.3-13.71
				C238.56,300.98,225.84,295.86,214.45,295.86z M326.75,281.99c-5.95,0-16.35,9.41-20.48,13.38c-6.28,5.95-11.89,12.39-17.67,18.83
				c-11.07,11.89-21.97,24.11-33.03,36.17h16.35c13.54-18.99,28.41-37,44.1-54.17c1.32-1.49,11.89-12.39,11.89-13.38
				C327.91,281.99,327.41,281.99,326.75,281.99z"/>
			<path class="st0" d="M384.56,369.52c-6.28,6.28-25.43,26.76-34.85,26.76c-3.8,0-7.27-1.65-7.27-5.95
				c0-8.26,20.31-26.92,20.31-32.37c0-1.32-1.16-2.48-2.48-2.48c-3.14,0-7.43,3.8-9.58,5.78c-13.38,11.73-19.65,20.48-30.72,35.01
				h-8.59c8.59-11.4,17.67-22.3,26.26-33.69c0.83-0.99,1.98-2.97,1.98-4.29c0-1.49-0.99-2.31-2.48-2.31c-2.31,0-5.29,1.82-7.1,3.14
				c-8.75,6.28-16.19,14.37-22.63,22.96c-3.47,4.62-6.61,9.58-10.24,14.04l-8.75-0.33l21.8-27.91c1.49-1.82,6.11-8.09,6.11-10.57
				c0-1.16-1.16-2.15-2.31-2.15c-5.78,0-15.19,13.71-17.84,13.71c-0.33,0-0.66-0.33-0.66-0.66c0-0.83,0.66-1.49,1.32-1.98
				c4.62-3.96,12.72-13.87,18.99-13.87c3.14,0,5.12,2.31,5.12,5.45c0,1.98-0.99,5.62-1.98,7.27c4.13-3.8,15.03-12.72,20.98-12.72
				c3.3,0,5.62,1.98,5.62,5.45c0,2.31-1.32,5.28-2.48,7.27c4.29-4.13,13.38-12.88,19.82-12.88c3.47,0,6.61,1.82,6.61,5.62
				c0,3.3-2.31,6.11-4.13,8.75l-10.74,14.86c-1.32,1.82-5.45,7.27-5.45,9.74c0,1.16,0.99,2.15,2.15,2.15
				c7.1,0,34.52-27.75,35.01-27.75c0.5,0,0.99,0.33,0.99,0.83C387.37,367.04,385.05,369.02,384.56,369.52z"/>
			<path class="st0" d="M429.15,373.15c-2.48,1.82-8.75,4.62-11.89,4.62c-1.98,0-3.8,0-5.78-0.33
				c-6.28,6.94-19.49,18.83-29.23,18.83c-5.12,0-9.08-4.79-9.08-9.74c0-14.53,25.27-34.52,39.14-34.52c4.62,0,7.27,2.81,7.27,7.43
				c0,5.62-3.63,11.4-6.44,16.02c7.43,0,12.06-1.49,18-6.11c0.5-0.5,3.3-3.14,3.8-3.14c0.33,0,0.83,0.17,0.83,0.66
				C435.76,368.2,430.3,372.33,429.15,373.15z M413.46,355.32c-9.08,0-20.48,12.72-25.6,18.99c-2.31,2.81-9.08,10.73-9.08,14.86
				c0,2.81,2.15,4.62,4.79,4.62c6.28,0,18-9.74,22.13-13.87c4.29-4.29,11.56-14.53,11.56-20.81
				C417.26,356.97,415.61,355.32,413.46,355.32z"/>
			<path class="st0" d="M470.44,372.82c-6.11,5.95-22.79,22.79-31.22,22.79c-4.62,0-7.27-2.81-7.27-7.43
				c0-10.57,18.66-25.43,26.1-31.55c-1.65,0.5-3.3,0.66-4.95,0.66c-1.82,0-4.29-0.99-5.78-2.15c-1.49,1.65-12.06,13.38-13.21,13.38
				c-0.5,0-0.83-0.33-0.83-0.83c0-0.66,0.99-1.49,1.32-1.82c4.29-4.13,8.26-8.59,12.06-13.21c0-3.3,1.49-8.92,5.62-8.92
				c1.98,0,2.81,1.98,2.81,3.63c0,2.31-1.98,4.29-3.47,5.78c1.32,0.66,2.81,1.16,4.29,1.16c3.14,0,6.61-0.99,9.74-1.82
				c0.33,0.33,1.16,0.99,1.16,1.49c0,0.83-2.81,3.14-3.3,3.63c-5.45,5.29-24.44,23.29-24.44,32.54c0,1.32,0.99,2.31,2.31,2.31
				c8.59,0,31.71-26.26,33.2-26.26c0.5,0,0.99,0.33,0.99,0.83C475.56,367.87,471.1,372.16,470.44,372.82z"/>
		</g>
	</g>
	<g>
		<g>
			<path class="st0" d="M78.76,296.9c-0.63,0.84-1.89,2.53-1.89,3.69c0,1.05,0.74,1.89,1.79,1.89c6.63,0,20.21-18.11,21.9-18.11
				c0.32,0,0.53,0.21,0.53,0.53c0,0.42-6.11,6.74-6.63,7.26c-3.16,3.37-10.84,11.9-16.11,11.9c-2.63,0-4.84-1.58-4.84-4.42
				c0-1.16,0.32-2.32,0.74-3.37c-3.47,3.16-8.21,7.69-13.26,7.69c-3.37,0-5.16-1.79-5.16-5.16c0-5.69,5.58-10.84,9.37-14.42
				c4-3.79,9.9-8.32,15.69-8.32c2.11,0,4.95,1.47,4.95,3.16c0,0.74-0.11,1.58-0.42,2.11l22.74-29.9h4.95L78.76,296.9z M81.5,277.75
				c-4.32,0-9.69,6-12.42,8.84c-2.53,2.63-9.47,9.69-9.47,13.58c0,1.37,0.74,2.11,2.11,2.11c4,0,11.48-6.74,14.11-9.37
				c2.95-2.95,8.32-7.9,8.32-12.42C84.13,278.8,83.18,277.75,81.5,277.75z"/>
			<path class="st0" d="M100.76,303.96c-4,0-7.37-3.37-7.37-7.37c0-4.53,3.47-8.84,6.42-12c3.05-3.37,10.63-8.53,15.48-8.53
				c1.89,0,4,0.95,4,3.16c0,7.9-14.63,12.95-20.63,14.95c-0.84,1.26-1.58,2.53-1.58,4.11c0,2.32,1.58,3.89,3.9,3.89
				c6.84,0,18.95-10.32,23.48-14.84c0.53-0.53,2.32-2.53,3.05-2.53c0.21,0,0.42,0.21,0.42,0.42
				C123.08,291.01,108.87,303.96,100.76,303.96z M115.39,277.32c-5.16,0-13.26,11.26-15.79,15.16c4.21-1.58,8.84-3.16,12.42-6.11
				c1.89-1.58,5.16-4.74,5.16-7.47C117.18,277.85,116.34,277.32,115.39,277.32z"/>
		</g>
	</g>
</g>
</svg>
